<mxfile host="65bd71144e">
    <diagram id="ljkyCFH_7OUOzamM39qA" name="ページ1">
        <mxGraphModel dx="830" dy="1666" grid="1" gridSize="10" guides="1" tooltips="1" connect="1" arrows="1" fold="1" page="1" pageScale="1" pageWidth="827" pageHeight="1169" math="0" shadow="0">
            <root>
                <mxCell id="0"/>
                <mxCell id="1" parent="0"/>
                <mxCell id="38" value="" style="rounded=0;whiteSpace=wrap;html=1;" vertex="1" parent="1">
                    <mxGeometry x="10" y="-120" width="1330" height="660" as="geometry"/>
                </mxCell>
                <mxCell id="6" value="frontend&lt;br&gt;read report" style="shape=umlLifeline;perimeter=lifelinePerimeter;whiteSpace=wrap;html=1;container=1;collapsible=0;recursiveResize=0;outlineConnect=0;" vertex="1" parent="1">
                    <mxGeometry x="160" y="-80" width="100" height="860" as="geometry"/>
                </mxCell>
                <mxCell id="7" value="backend&lt;br&gt;summurize report" style="shape=umlLifeline;perimeter=lifelinePerimeter;whiteSpace=wrap;html=1;container=1;collapsible=0;recursiveResize=0;outlineConnect=0;" vertex="1" parent="1">
                    <mxGeometry x="580" y="-80" width="100" height="860" as="geometry"/>
                </mxCell>
                <mxCell id="8" value="OpenAI API" style="shape=umlLifeline;perimeter=lifelinePerimeter;whiteSpace=wrap;html=1;container=1;collapsible=0;recursiveResize=0;outlineConnect=0;" vertex="1" parent="1">
                    <mxGeometry x="980" y="-80" width="100" height="860" as="geometry"/>
                </mxCell>
                <mxCell id="9" value="Gemini Pro API" style="shape=umlLifeline;perimeter=lifelinePerimeter;whiteSpace=wrap;html=1;container=1;collapsible=0;recursiveResize=0;outlineConnect=0;" vertex="1" parent="1">
                    <mxGeometry x="1110" y="-80" width="100" height="860" as="geometry"/>
                </mxCell>
                <mxCell id="37" value="response API" style="html=1;verticalAlign=bottom;endArrow=open;dashed=1;endSize=8;" edge="1" parent="9" source="16">
                    <mxGeometry relative="1" as="geometry">
                        <mxPoint x="276" y="240" as="sourcePoint"/>
                        <mxPoint x="-210" y="240" as="targetPoint"/>
                        <Array as="points">
                            <mxPoint x="-73.5" y="240"/>
                        </Array>
                        <mxPoint as="offset"/>
                    </mxGeometry>
                </mxCell>
                <mxCell id="11" value="" style="shape=umlLifeline;participant=umlActor;perimeter=lifelinePerimeter;whiteSpace=wrap;html=1;container=1;collapsible=0;recursiveResize=0;verticalAlign=top;spacingTop=36;outlineConnect=0;" vertex="1" parent="1">
                    <mxGeometry x="40" y="-80" width="20" height="880" as="geometry"/>
                </mxCell>
                <mxCell id="12" value="send IR report with Web Browser" style="html=1;verticalAlign=bottom;endArrow=block;" edge="1" parent="1" source="11">
                    <mxGeometry width="80" relative="1" as="geometry">
                        <mxPoint x="190" y="20" as="sourcePoint"/>
                        <mxPoint x="210" y="20" as="targetPoint"/>
                    </mxGeometry>
                </mxCell>
                <mxCell id="13" value="display result Web Browser" style="html=1;verticalAlign=bottom;endArrow=open;dashed=1;endSize=8;" edge="1" parent="1" source="6" target="11">
                    <mxGeometry x="0.1188" relative="1" as="geometry">
                        <mxPoint x="190" y="500" as="sourcePoint"/>
                        <mxPoint x="110" y="500" as="targetPoint"/>
                        <Array as="points">
                            <mxPoint x="160" y="440"/>
                            <mxPoint x="120" y="440"/>
                        </Array>
                        <mxPoint x="1" as="offset"/>
                    </mxGeometry>
                </mxCell>
                <mxCell id="14" value="backend&lt;br&gt;generate prompt" style="shape=umlLifeline;perimeter=lifelinePerimeter;whiteSpace=wrap;html=1;container=1;collapsible=0;recursiveResize=0;outlineConnect=0;" vertex="1" parent="1">
                    <mxGeometry x="710" y="-80" width="100" height="860" as="geometry"/>
                </mxCell>
                <mxCell id="15" value="get generated report" style="html=1;verticalAlign=bottom;endArrow=block;" edge="1" parent="1" source="6" target="21">
                    <mxGeometry x="0.0025" width="80" relative="1" as="geometry">
                        <mxPoint x="210" y="50" as="sourcePoint"/>
                        <mxPoint x="370.5" y="50" as="targetPoint"/>
                        <Array as="points">
                            <mxPoint x="230" y="40"/>
                            <mxPoint x="350" y="40"/>
                        </Array>
                        <mxPoint as="offset"/>
                    </mxGeometry>
                </mxCell>
                <mxCell id="16" value="yahoo finance api" style="shape=umlLifeline;perimeter=lifelinePerimeter;whiteSpace=wrap;html=1;container=1;collapsible=0;recursiveResize=0;outlineConnect=0;" vertex="1" parent="1">
                    <mxGeometry x="1241" y="-80" width="100" height="860" as="geometry"/>
                </mxCell>
                <mxCell id="17" value="get stock price" style="html=1;verticalAlign=bottom;endArrow=block;" edge="1" parent="1" source="14" target="33">
                    <mxGeometry width="80" relative="1" as="geometry">
                        <mxPoint x="530" y="50" as="sourcePoint"/>
                        <mxPoint x="690.5" y="50" as="targetPoint"/>
                        <Array as="points">
                            <mxPoint x="410" y="130"/>
                            <mxPoint x="710" y="130"/>
                            <mxPoint x="900" y="130"/>
                        </Array>
                    </mxGeometry>
                </mxCell>
                <mxCell id="21" value="backend&lt;br&gt;generate AI report" style="shape=umlLifeline;perimeter=lifelinePerimeter;whiteSpace=wrap;html=1;container=1;collapsible=0;recursiveResize=0;outlineConnect=0;" vertex="1" parent="1">
                    <mxGeometry x="364" y="-80" width="100" height="860" as="geometry"/>
                </mxCell>
                <mxCell id="25" value="get prompt with &lt;br&gt;using summurized report and&amp;nbsp; stock price" style="html=1;verticalAlign=bottom;endArrow=block;" edge="1" parent="21" target="14">
                    <mxGeometry width="80" relative="1" as="geometry">
                        <mxPoint x="50" y="300" as="sourcePoint"/>
                        <mxPoint x="316" y="300" as="targetPoint"/>
                    </mxGeometry>
                </mxCell>
                <mxCell id="22" value="prompt based on sending IR reportt" style="html=1;verticalAlign=bottom;endArrow=block;" edge="1" parent="1" source="7" target="9">
                    <mxGeometry width="80" relative="1" as="geometry">
                        <mxPoint x="570" y="60" as="sourcePoint"/>
                        <mxPoint x="949.5" y="60" as="targetPoint"/>
                        <Array as="points">
                            <mxPoint x="900" y="60"/>
                        </Array>
                    </mxGeometry>
                </mxCell>
                <mxCell id="24" value="response stock price" style="html=1;verticalAlign=bottom;endArrow=open;dashed=1;endSize=8;" edge="1" parent="1" source="33" target="21">
                    <mxGeometry relative="1" as="geometry">
                        <mxPoint x="977.5" y="150" as="sourcePoint"/>
                        <mxPoint x="414" y="150" as="targetPoint"/>
                        <Array as="points">
                            <mxPoint x="550" y="170"/>
                        </Array>
                        <mxPoint as="offset"/>
                    </mxGeometry>
                </mxCell>
                <mxCell id="26" value="response prompt" style="html=1;verticalAlign=bottom;endArrow=open;dashed=1;endSize=8;" edge="1" parent="1" source="14">
                    <mxGeometry relative="1" as="geometry">
                        <mxPoint x="977.5" y="250" as="sourcePoint"/>
                        <mxPoint x="414" y="250" as="targetPoint"/>
                        <Array as="points">
                            <mxPoint x="618" y="250"/>
                            <mxPoint x="548" y="250"/>
                        </Array>
                        <mxPoint as="offset"/>
                    </mxGeometry>
                </mxCell>
                <mxCell id="29" value="response report" style="html=1;verticalAlign=bottom;endArrow=open;dashed=1;endSize=8;" edge="1" parent="1" source="8">
                    <mxGeometry relative="1" as="geometry">
                        <mxPoint x="820" y="330" as="sourcePoint"/>
                        <mxPoint x="414" y="330" as="targetPoint"/>
                        <Array as="points">
                            <mxPoint x="618" y="330"/>
                            <mxPoint x="548" y="330"/>
                        </Array>
                        <mxPoint as="offset"/>
                    </mxGeometry>
                </mxCell>
                <mxCell id="30" value="prompt based on &lt;br&gt;sending IR report" style="html=1;verticalAlign=bottom;endArrow=block;" edge="1" parent="1" source="21" target="7">
                    <mxGeometry x="-0.226" width="80" relative="1" as="geometry">
                        <mxPoint x="420" y="50" as="sourcePoint"/>
                        <mxPoint x="593.5" y="50" as="targetPoint"/>
                        <mxPoint as="offset"/>
                        <Array as="points">
                            <mxPoint x="490" y="50"/>
                        </Array>
                    </mxGeometry>
                </mxCell>
                <mxCell id="31" value="response generated report with AI" style="html=1;verticalAlign=bottom;endArrow=open;dashed=1;endSize=8;" edge="1" parent="1" target="6">
                    <mxGeometry relative="1" as="geometry">
                        <mxPoint x="414" y="370" as="sourcePoint"/>
                        <mxPoint x="254" y="370" as="targetPoint"/>
                    </mxGeometry>
                </mxCell>
                <mxCell id="32" value="" style="html=1;verticalAlign=bottom;endArrow=open;dashed=1;endSize=8;" edge="1" parent="1" source="7" target="21">
                    <mxGeometry relative="1" as="geometry">
                        <mxPoint x="560" y="100" as="sourcePoint"/>
                        <mxPoint x="570" y="100" as="targetPoint"/>
                        <Array as="points">
                            <mxPoint x="510" y="100"/>
                        </Array>
                        <mxPoint as="offset"/>
                    </mxGeometry>
                </mxCell>
                <mxCell id="33" value="backend&lt;br&gt;get stock price" style="shape=umlLifeline;perimeter=lifelinePerimeter;whiteSpace=wrap;html=1;container=1;collapsible=0;recursiveResize=0;outlineConnect=0;" vertex="1" parent="1">
                    <mxGeometry x="850" y="-80" width="100" height="860" as="geometry"/>
                </mxCell>
                <mxCell id="20" value="response summurized report" style="html=1;verticalAlign=bottom;endArrow=open;dashed=1;endSize=8;" edge="1" parent="1" source="9" target="7">
                    <mxGeometry relative="1" as="geometry">
                        <mxPoint x="1030" y="90" as="sourcePoint"/>
                        <mxPoint x="640" y="90" as="targetPoint"/>
                        <Array as="points">
                            <mxPoint x="810" y="90"/>
                            <mxPoint x="790" y="90"/>
                        </Array>
                        <mxPoint as="offset"/>
                    </mxGeometry>
                </mxCell>
                <mxCell id="35" value="call API" style="html=1;verticalAlign=bottom;endArrow=block;" edge="1" parent="1">
                    <mxGeometry x="0.5132" width="80" relative="1" as="geometry">
                        <mxPoint x="1249.5" y="140" as="sourcePoint"/>
                        <mxPoint x="1290" y="140" as="targetPoint"/>
                        <Array as="points">
                            <mxPoint x="900" y="140"/>
                            <mxPoint x="980" y="140"/>
                            <mxPoint x="1200" y="140"/>
                        </Array>
                        <mxPoint as="offset"/>
                    </mxGeometry>
                </mxCell>
                <mxCell id="28" value="get generated report&amp;nbsp;" style="html=1;verticalAlign=bottom;endArrow=block;" edge="1" parent="1" source="21" target="8">
                    <mxGeometry width="80" relative="1" as="geometry">
                        <mxPoint x="482" y="300" as="sourcePoint"/>
                        <mxPoint x="1018" y="300" as="targetPoint"/>
                        <Array as="points">
                            <mxPoint x="720" y="290"/>
                        </Array>
                    </mxGeometry>
                </mxCell>
            </root>
        </mxGraphModel>
    </diagram>
</mxfile>